<?xml version="1.0" encoding="UTF-8" standalone="no"?><!DOCTYPE svg PUBLIC "-//W3C//DTD SVG 1.1//EN" "http://www.w3.org/Graphics/SVG/1.1/DTD/svg11.dtd"><svg width="100%" height="100%" viewBox="0 0 900 900" version="1.1" xmlns="http://www.w3.org/2000/svg" xmlns:xlink="http://www.w3.org/1999/xlink" xml:space="preserve" xmlns:serif="http://www.serif.com/" style="fill-rule:evenodd;clip-rule:evenodd;stroke-linejoin:round;stroke-miterlimit:2;"><g><g><path d="M476.118,282.612l0,-211.905c0,-8.389 0,-16.753 -0.025,-25.141c0,-10.504 -0.197,-21.008 -4.6,-30.775c-6.101,-13.456 -20.787,-18.548 -33.284,-12.079c-5.461,2.829 -10.086,7.159 -14.612,11.513c-21.033,20.246 -41.058,41.673 -61.549,62.533c-6.691,6.814 -14.219,13.161 -16.064,23.444l-1.451,260.269l-89.224,0l0,-0.049c-29.372,2.189 -30.873,-24.797 -30.873,-24.797l0,-44.477c-2.608,-29.889 -26.765,-35.35 -26.765,-35.35c-16.728,-4.01 -22.681,4.748 -22.681,4.748l-71.02,69.249c-14.883,12.398 -12.718,35.35 -12.718,35.35l0.246,127.232c-2.116,23.887 10.652,35.375 10.652,35.375l55.572,54.071c22.804,24.797 43.96,21.943 43.96,21.943c27.38,-1.624 25.092,-25.609 25.092,-25.609l0,-54.219c1.427,-24.748 20.935,-28.634 28.364,-29.225l88.659,0l-1.156,208.436c55.03,-55.03 74.366,-74.538 133.455,-133.652l0,-154.907c0,-44.01 0,-88.044 0.025,-132.053l0,0.074Z" style="fill:#fff;fill-rule:nonzero;"/><path d="M778.896,511.762c0,0 20.812,-23.395 0,-44.28c0,0 -11.07,-11.242 -24.748,-10.603l-95.817,0.049c-9.127,0 -17.909,3.641 -24.379,10.086l-46.888,46.765l-184.476,184.451l-47.429,47.577c-6.445,6.47 -10.086,15.227 -10.086,24.379l-0.049,95.817c-0.64,13.678 10.603,24.748 10.603,24.748c20.885,20.812 44.28,0 44.28,0c0,0 24.403,-24.305 97.638,-97.539l184.476,-184.476c72.718,-72.718 96.875,-96.973 96.875,-96.973Z" style="fill:#fff;fill-rule:nonzero;"/></g></g></svg>