<?xml version="1.0" encoding="UTF-8" standalone="no"?><!DOCTYPE svg PUBLIC "-//W3C//DTD SVG 1.1//EN" "http://www.w3.org/Graphics/SVG/1.1/DTD/svg11.dtd"><svg width="100%" height="100%" viewBox="0 0 786 52" version="1.1" xmlns="http://www.w3.org/2000/svg" xmlns:xlink="http://www.w3.org/1999/xlink" xml:space="preserve" xmlns:serif="http://www.serif.com/" style="fill-rule:evenodd;clip-rule:evenodd;stroke-linejoin:round;stroke-miterlimit:2;"><g><path d="M36.132,50.178l-4.059,0l0,-22.655l-27.961,0l0,22.655l-4.059,0l0,-49.229l4.059,0l0,23.127l27.961,0l0,-23.127l4.059,0l0,49.229Z" style="fill:#fff;fill-rule:nonzero;"/><path d="M84.326,28.303l15.249,-27.354l4.7,0l-17.955,31.24l0,17.989l-4.025,0l0,-18.158l-17.821,-31.072l4.7,0l15.148,27.354l0.005,0Z" style="fill:#fff;fill-rule:nonzero;"/><path d="M136.781,29.719l0,20.454l-4.059,0l0,-49.229l16.973,0c5.162,0 9.158,1.319 11.99,3.958c2.826,2.639 4.242,6.11 4.242,10.415c0,4.305 -1.416,7.868 -4.242,10.482c-2.831,2.615 -6.828,3.924 -11.99,3.924l-12.914,0l0,-0.005Zm0,-3.448l12.914,0c4.059,0 7.102,-1.03 9.129,-3.096c2.027,-2.061 3.043,-4.661 3.043,-7.791c0,-3.13 -1.016,-5.773 -3.043,-7.858c-2.027,-2.085 -5.07,-3.13 -9.129,-3.13l-12.914,0l0,21.875Z" style="fill:#fff;fill-rule:nonzero;"/><path d="M222.335,26.339l-22.077,0l0,20.421l25.529,0l0,3.414l-29.584,0l0,-49.229l29.415,0l0,3.448l-25.356,0l0,18.495l22.077,0l0,3.448l-0.005,0.005Z" style="fill:#fff;fill-rule:nonzero;"/><path d="M259.103,27.928l0,22.246l-4.059,0l0,-49.196l16.4,0c5.272,0 9.322,1.156 12.139,3.467c2.817,2.311 4.228,5.687 4.228,10.126c0,2.615 -0.751,4.95 -2.249,7.016c-1.497,2.061 -3.621,3.568 -6.37,4.512c3.043,0.766 5.234,2.138 6.577,4.107c1.343,1.974 2.013,4.449 2.013,7.425l0,4.632c0,1.531 0.178,2.908 0.539,4.127c0.361,1.218 0.958,2.21 1.791,2.976l0,0.814l-4.127,0c-0.833,-0.814 -1.42,-1.95 -1.757,-3.414c-0.337,-1.464 -0.506,-2.985 -0.506,-4.565l0,-4.497c0,-3.019 -0.977,-5.403 -2.923,-7.15c-1.95,-1.743 -4.671,-2.619 -8.166,-2.619l-13.526,0l-0.005,-0.005Zm0,-3.448l11.869,0c4.439,0 7.685,-0.896 9.736,-2.687c2.051,-1.796 3.077,-4.208 3.077,-7.251c0,-3.245 -1.021,-5.74 -3.058,-7.487c-2.042,-1.748 -5.133,-2.619 -9.283,-2.619l-12.341,0l0,20.05l0,-0.005Z" style="fill:#fff;fill-rule:nonzero;"/><path d="M325.146,46.764l25.428,0l0,3.414l-29.483,0l0,-49.229l4.059,0l0,45.815l-0.005,0Z" style="fill:#fff;fill-rule:nonzero;"/><path d="M416.113,29.584c0,6.356 -1.738,11.494 -5.224,15.418c-3.481,3.924 -8.152,5.884 -14.012,5.884c-5.86,0 -10.376,-1.96 -13.81,-5.884c-3.438,-3.924 -5.157,-9.062 -5.157,-15.418l0,-8.012c0,-6.332 1.714,-11.474 5.138,-15.418c3.428,-3.944 8.027,-5.918 13.795,-5.918c5.768,0 10.54,1.974 14.031,5.918c3.496,3.944 5.239,9.086 5.239,15.418l0,8.012Zm-4.021,-8.08c0,-5.321 -1.348,-9.601 -4.04,-12.847c-2.692,-3.245 -6.428,-4.868 -11.209,-4.868c-4.781,0 -8.34,1.623 -10.954,4.868c-2.615,3.245 -3.924,7.531 -3.924,12.847l0,8.08c0,5.364 1.31,9.669 3.939,12.914c2.624,3.245 6.284,4.868 10.969,4.868c4.685,0 8.537,-1.618 11.209,-4.854c2.668,-3.231 4.006,-7.545 4.006,-12.933l0,-8.08l0.005,0.005Z" style="fill:#fff;fill-rule:nonzero;"/><path d="M483.48,29.584c0,6.356 -1.738,11.494 -5.224,15.418c-3.481,3.924 -8.152,5.884 -14.012,5.884c-5.86,0 -10.376,-1.96 -13.81,-5.884c-3.438,-3.924 -5.157,-9.062 -5.157,-15.418l0,-8.012c0,-6.332 1.714,-11.474 5.138,-15.418c3.428,-3.944 8.027,-5.918 13.795,-5.918c5.768,0 10.54,1.974 14.031,5.918c3.496,3.944 5.239,9.086 5.239,15.418l0,8.012Zm-4.025,-8.08c0,-5.321 -1.348,-9.601 -4.04,-12.847c-2.692,-3.245 -6.428,-4.868 -11.209,-4.868c-4.781,0 -8.34,1.623 -10.954,4.868c-2.615,3.245 -3.924,7.531 -3.924,12.847l0,8.08c0,5.364 1.31,9.669 3.939,12.914c2.624,3.245 6.284,4.868 10.969,4.868c4.685,0 8.537,-1.618 11.209,-4.854c2.668,-3.231 4.006,-7.545 4.006,-12.933l0,-8.08l0.005,0.005Z" style="fill:#fff;fill-rule:nonzero;"/><path d="M518.794,29.719l0,20.454l-4.059,0l0,-49.229l16.973,0c5.162,0 9.158,1.319 11.99,3.958c2.826,2.639 4.242,6.11 4.242,10.415c0,4.305 -1.416,7.868 -4.242,10.482c-2.831,2.615 -6.828,3.924 -11.99,3.924l-12.914,0l0,-0.005Zm0,-3.448l12.914,0c4.059,0 7.102,-1.03 9.129,-3.096c2.027,-2.061 3.043,-4.661 3.043,-7.791c0,-3.13 -1.016,-5.773 -3.043,-7.858c-2.027,-2.085 -5.07,-3.13 -9.129,-3.13l-12.914,0l0,21.875Z" style="fill:#fff;fill-rule:nonzero;"/><path d="M652.306,0.949l0,32.425c0,5.48 -1.801,9.765 -5.393,12.866c-3.597,3.101 -8.234,4.651 -13.911,4.651c-5.677,0 -10.145,-1.55 -13.66,-4.651c-3.515,-3.096 -5.272,-7.386 -5.272,-12.866l0,-32.425l8.215,0l0,32.425c0,3.496 0.982,6.192 2.942,8.099c1.96,1.907 4.555,2.855 7.776,2.855c3.221,0 6.019,-0.953 8.046,-2.855c2.027,-1.907 3.043,-4.603 3.043,-8.099l0,-32.425l8.215,0Z" style="fill:#fff;fill-rule:nonzero;"/><path d="M690.899,31.51l-0,18.668l-8.215,0l0,-49.229l18.865,0c5.431,0 9.688,1.401 12.765,4.208c3.077,2.802 4.613,6.496 4.613,11.07c0,4.574 -1.541,8.325 -4.613,11.108c-3.077,2.783 -7.333,4.175 -12.765,4.175l-10.651,0Zm-0,-6.592l10.651,0c3.043,0 5.33,-0.814 6.861,-2.436c1.531,-1.623 2.297,-3.684 2.297,-6.187c0,-2.504 -0.766,-4.589 -2.297,-6.255c-1.531,-1.666 -3.818,-2.504 -6.861,-2.504l-10.651,0l0,17.382Z" style="fill:#fff;fill-rule:nonzero;"/><path d="M763.37,36.821l0.881,3.582l0.202,0l0.847,-3.515l11.768,-35.94l8.759,0l-17.58,49.229l-7.81,0l-17.546,-49.229l8.759,0l11.734,35.872l-0.014,0Z" style="fill:#fff;fill-rule:nonzero;"/></g></svg>