<?xml version="1.0" encoding="UTF-8"?>
<svg id="IMAGOTIPO" xmlns="http://www.w3.org/2000/svg" viewBox="0 0 900 900">
  <defs>
    <style>
      .cls-1 {
        stroke-width: 0px;
      }
    </style>
  </defs>
  <path class="cls-1" d="M467.8,368.36c0-15.96,0-31.92,0-47.88,0-11.23,0-22.45,0-33.68,0-7.27,0-14.54,0-21.8,0-4.09,0-8.17-.01-12.26,0-5.13-.09-10.25-2.25-15.01-2.98-6.56-10.14-9.04-16.24-5.89-2.67,1.38-4.93,3.5-7.13,5.62-10.26,9.88-20.03,20.33-30.02,30.51-3.26,3.33-6.94,6.41-7.83,11.43l-.7,126.96h-43.52v-.02c-14.33,1.07-15.06-12.09-15.06-12.09v-21.69c-1.27-14.58-13.06-17.25-13.06-17.25-8.16-1.96-11.07,2.31-11.07,2.31l-34.65,33.78c-7.26,6.05-6.2,17.25-6.2,17.25l.12,62.07c-1.03,11.65,5.2,17.26,5.2,17.26l27.11,26.38c11.13,12.1,21.45,10.71,21.45,10.71,13.35-.79,12.24-12.49,12.24-12.49v-26.44c.7-12.07,10.21-13.97,13.84-14.25h43.24l-.56,101.68c26.84-26.84,36.27-36.36,65.11-65.19.01-27.76,0-47.81,0-75.57,0-21.47.01-42.95.01-64.42Z"/>
  <path class="cls-1" d="M615.5,480.15s10.15-11.42,0-21.6c0,0-5.4-5.48-12.07-5.17l-46.74.03c-4.46,0-8.73,1.77-11.89,4.92l-22.87,22.82h0s-89.98,89.98-89.98,89.98h0s-23.14,23.2-23.14,23.2c-3.15,3.16-4.92,7.43-4.92,11.89l-.03,46.74c-.31,6.68,5.17,12.07,5.17,12.07,10.18,10.15,21.6,0,21.6,0,0,0,11.9-11.86,47.63-47.58h0l89.98-89.98h0c35.47-35.47,47.26-47.3,47.26-47.3Z"/>
</svg>